<svg width="26" height="26" viewBox="0 0 26 26" fill="none" xmlns="http://www.w3.org/2000/svg">
<path d="M15.6 13L10.4 7.80102V11.7003H0V14.2997H10.4V18.199L15.6 13ZM26 13C26.0006 16.1058 24.8889 19.1091 22.8661 21.4661C20.8433 23.8232 18.0432 25.3781 14.9728 25.8494C11.9024 26.3207 8.7647 25.6772 6.12785 24.0355C3.49099 22.3937 1.52931 19.8621 0.598 16.8992H3.367C4.27207 19.1362 5.92712 20.9888 8.04852 22.1395C10.1699 23.2902 12.6256 23.6674 14.9946 23.2065C17.3637 22.7456 19.4987 21.4752 21.0337 19.6131C22.5686 17.7509 23.4081 15.413 23.4081 13C23.4081 10.587 22.5686 8.24905 21.0337 6.38693C19.4987 4.52481 17.3637 3.25443 14.9946 2.7935C12.6256 2.33257 10.1699 2.70979 8.04852 3.86051C5.92712 5.01124 4.27207 6.86382 3.367 9.10076H0.598C1.52931 6.13787 3.49099 3.60633 6.12785 1.96454C8.7647 0.322753 11.9024 -0.320748 14.9728 0.150561C18.0432 0.621869 20.8433 2.17683 22.8661 4.53388C24.8889 6.89093 26.0006 9.89424 26 13Z" fill="white"/>
</svg>
